<?xml version="1.0" encoding="UTF-8" standalone="no"?>
<!-- Created with Inkscape (http://www.inkscape.org/) -->

<svg
   xmlns:dc="http://purl.org/dc/elements/1.1/"
   xmlns:cc="http://creativecommons.org/ns#"
   xmlns:rdf="http://www.w3.org/1999/02/22-rdf-syntax-ns#"
   xmlns:svg="http://www.w3.org/2000/svg"
   xmlns="http://www.w3.org/2000/svg"
   xmlns:sodipodi="http://sodipodi.sourceforge.net/DTD/sodipodi-0.dtd"
   xmlns:inkscape="http://www.inkscape.org/namespaces/inkscape"
   width="31mm"
   height="22.4mm"
   viewBox="0 0 109.84252 79.37008"
   id="svg2"
   version="1.1"
   inkscape:version="0.91 r13725"
   sodipodi:docname="fish_5.svg">
  <defs
     id="defs4" />
  <sodipodi:namedview
     id="base"
     pagecolor="#ffffff"
     bordercolor="#666666"
     borderopacity="1.0"
     inkscape:pageopacity="0.0"
     inkscape:pageshadow="2"
     inkscape:zoom="2.8"
     inkscape:cx="37.785984"
     inkscape:cy="-26.298422"
     inkscape:document-units="px"
     inkscape:current-layer="g4190"
     showgrid="false"
     inkscape:window-width="1855"
     inkscape:window-height="1056"
     inkscape:window-x="65"
     inkscape:window-y="24"
     inkscape:window-maximized="1" />
  <metadata
     id="metadata7">
    <rdf:RDF>
      <cc:Work
         rdf:about="">
        <dc:format>image/svg+xml</dc:format>
        <dc:type
           rdf:resource="http://purl.org/dc/dcmitype/StillImage" />
        <dc:title />
      </cc:Work>
    </rdf:RDF>
  </metadata>
  <g
     inkscape:label="Ebene 1"
     inkscape:groupmode="layer"
     id="layer1"
     transform="translate(0,-972.99213)">
    <g
       id="g4866"
       transform="translate(-7.0710678,12.121831)">
      <g
         id="g4877"
         transform="matrix(3.5346616,0,0,3.5370859,-873.17563,-1056.0948)"
         style="stroke:none;stroke-opacity:1">
        <g
           id="g4190"
           transform="matrix(1,0,0,1.0137557,0,-8.1522044)">
          <path
             sodipodi:nodetypes="sssas"
             inkscape:connector-curvature="0"
             id="path3413"
             d="m 280.1369,582.68429 c 0,5.89109 -5.13985,9.98107 -11.35587,9.98107 -6.21602,0 -7.69032,-4.36659 -11.00317,-7.4669 -3.52701,-3.30072 6.40489,-12.80512 11.10394,-13.18093 4.42153,-0.35361 11.2551,4.77567 11.2551,10.66676 z"
             style="fill:#cc4a3d;fill-opacity:1;stroke:none;stroke-opacity:1" />
          <path
             sodipodi:nodetypes="sssss"
             inkscape:connector-curvature="0"
             id="path3415"
             d="m 260.59961,584.38439 c -2.03442,2.33856 -3.18241,3.40876 -6.15142,1.85417 -2.96901,-1.55459 8.77372,-4.10715 -2.69491,-4.10428 -2.87449,7.2e-4 3.40991,-5.30214 6.31351,-2.79261 2.46901,2.13391 4.68942,2.56371 2.53282,5.04272 z"
             style="fill:#cc4a3d;fill-opacity:1;stroke:none;stroke-opacity:1" />
          <path
             sodipodi:nodetypes="sssss"
             inkscape:connector-curvature="0"
             id="path3418-8"
             d="m 264.63581,570.84912 c -1.84815,-0.27067 -3.4926,1.39531 -4.75161,2.45602 -1.25901,1.06071 20.59378,-3.29543 1.06539,1.49271 -1.99223,0.48847 2.19467,2.09107 3.45367,1.03036 1.25901,-1.06071 15.66227,-2.71933 0.23255,-4.97909 z"
             style="fill:#cc4a3d;fill-opacity:1;stroke:none;stroke-opacity:1" />
          <ellipse
             ry="0.72004604"
             rx="0.9106046"
             cy="575.6507"
             cx="266.95007"
             id="path3460"
             style="fill:#d29037;fill-opacity:1;stroke:none;stroke-opacity:1" />
          <ellipse
             ry="1.1270286"
             rx="1.0156744"
             cy="576.0495"
             cx="264.36945"
             id="path3462"
             style="fill:#d89d37;fill-opacity:1;stroke:none;stroke-opacity:1" />
          <ellipse
             ry="0.59482062"
             rx="0.66544181"
             cy="577.66547"
             cx="262.04318"
             id="path3464"
             style="fill:#d26c37;fill-opacity:1;stroke:none;stroke-opacity:1" />
          <ellipse
             ry="0.60364717"
             rx="1.6246561"
             cy="460.23047"
             cx="452.90945"
             id="path3466"
             style="fill:#dee3db;stroke:none;stroke-opacity:1"
             transform="matrix(0.94716275,0.32075337,-0.32909231,0.94429776,0,0)" />
          <ellipse
             ry="0.32052523"
             rx="0.2801728"
             cy="580.24792"
             cx="278.44598"
             id="path3468"
             style="fill:#1f241c;stroke:none;stroke-opacity:1" />
          <path
             style="fill:#000000;fill-opacity:1;fill-rule:evenodd;stroke:none;stroke-width:64;stroke-linecap:butt;stroke-linejoin:round;stroke-miterlimit:4;stroke-dasharray:none;stroke-opacity:1"
             inkscape:transform-center-x="-0.70304509"
             inkscape:transform-center-y="-0.013383011"
             d="m 280.14571,583.01956 -0.009,-0.70412 -4.08997,-0.53391 0.017,0.21153 c 1.71338,0.57826 4.15727,1.60772 4.08209,1.02644 z"
             id="path4145"
             inkscape:connector-curvature="0"
             sodipodi:nodetypes="cccccc" />
        </g>
      </g>
    </g>
  </g>
</svg>
