<?xml version="1.0" encoding="UTF-8" standalone="no"?>
<!-- Created with Inkscape (http://www.inkscape.org/) -->

<svg
   xmlns:dc="http://purl.org/dc/elements/1.1/"
   xmlns:cc="http://creativecommons.org/ns#"
   xmlns:rdf="http://www.w3.org/1999/02/22-rdf-syntax-ns#"
   xmlns:svg="http://www.w3.org/2000/svg"
   xmlns="http://www.w3.org/2000/svg"
   xmlns:sodipodi="http://sodipodi.sourceforge.net/DTD/sodipodi-0.dtd"
   xmlns:inkscape="http://www.inkscape.org/namespaces/inkscape"
   width="31mm"
   height="22.4mm"
   viewBox="0 0 109.84252 79.37008"
   id="svg2"
   version="1.1"
   inkscape:version="0.91 r13725"
   sodipodi:docname="Fisch_3.svg">
  <defs
     id="defs4" />
  <sodipodi:namedview
     id="base"
     pagecolor="#ffffff"
     bordercolor="#666666"
     borderopacity="1.0"
     inkscape:pageopacity="0.0"
     inkscape:pageshadow="2"
     inkscape:zoom="3.959798"
     inkscape:cx="102.32745"
     inkscape:cy="53.720626"
     inkscape:document-units="px"
     inkscape:current-layer="g4877"
     showgrid="false"
     inkscape:window-width="1920"
     inkscape:window-height="1018"
     inkscape:window-x="1272"
     inkscape:window-y="-8"
     inkscape:window-maximized="1" />
  <metadata
     id="metadata7">
    <rdf:RDF>
      <cc:Work
         rdf:about="">
        <dc:format>image/svg+xml</dc:format>
        <dc:type
           rdf:resource="http://purl.org/dc/dcmitype/StillImage" />
        <dc:title></dc:title>
      </cc:Work>
    </rdf:RDF>
  </metadata>
  <g
     inkscape:label="Ebene 1"
     inkscape:groupmode="layer"
     id="layer1"
     transform="translate(0,-972.99213)">
    <g
       id="g4866"
       transform="translate(-7.0710678,12.121831)">
      <g
         id="g4877"
         transform="matrix(3.5346616,0,0,3.5370859,-873.17563,-1056.0948)"
         style="stroke:none;stroke-opacity:1">
        <g
           id="g3344"
           transform="matrix(0.1961302,0,0,0.17531556,195.79047,503.13742)">
          <path
             sodipodi:nodetypes="sssas"
             inkscape:connector-curvature="0"
             id="path3413"
             d="m 429.40928,453.59332 c 0,33.60277 -26.20633,56.93203 -57.89966,56.93203 -31.69333,0 -39.21025,-24.90699 -56.10135,-42.59116 -17.98299,-18.82731 32.65633,-73.04044 56.61515,-75.18405 22.54385,-2.01702 57.38586,27.24041 57.38586,60.84318 z"
             style="fill:#abc837;stroke:none;stroke-opacity:1" />
          <path
             sodipodi:nodetypes="sssss"
             inkscape:connector-curvature="0"
             id="path3415"
             d="m 330.43937,463.43272 c -10.37281,11.93312 -32.2543,32.0979 -47.39223,23.23052 -15.13794,-8.86739 38.10652,-15.01623 -8.09412,-54.54445 -15.02029,-12.85102 27.76791,-11.76407 42.57239,2.55025 12.58862,12.17183 24.60284,15.31655 12.91396,28.76368 z"
             style="fill:#abc837;stroke:none;stroke-opacity:1" />
          <path
             sodipodi:nodetypes="sssss"
             inkscape:connector-curvature="0"
             id="path3418-8"
             d="m 351.01857,386.22755 c -9.4231,-1.54391 -18.90042,-2.88772 -25.31966,3.16257 -6.41925,6.0503 0.76047,9.72597 6.52488,19.36097 5.76441,9.635 11.18986,11.92749 17.60909,5.8772 6.41925,-6.0503 79.85648,-15.51106 1.18569,-28.40074 z"
             style="fill:#abc837;stroke:none;stroke-opacity:1" />
          <ellipse
             ry="4.1071429"
             rx="4.6428576"
             cy="413.61584"
             cx="362.81815"
             id="path3460"
             style="fill:#668000;stroke:none;stroke-opacity:1" />
          <ellipse
             ry="6.4285712"
             rx="5.1785717"
             cy="415.89047"
             cx="349.66043"
             id="path3462"
             style="fill:#445500;stroke:none;stroke-opacity:1" />
          <ellipse
             ry="3.3928571"
             rx="3.3928573"
             cy="425.10791"
             cx="337.79965"
             id="path3464"
             style="fill:#445500;stroke:none;stroke-opacity:1" />
          <ellipse
             ry="21.607143"
             rx="18.928572"
             cy="426.88998"
             cx="408.8616"
             id="path3466"
             style="fill:#dee3db;stroke:none;stroke-opacity:1" />
          <ellipse
             ry="12.440476"
             rx="8.9830513"
             cy="431.35431"
             cx="414.73929"
             id="path3468"
             style="fill:#1f241c;stroke:none;stroke-opacity:1" />
          <path
             sodipodi:nodetypes="sssss"
             inkscape:connector-curvature="0"
             id="path4850"
             d="m 428.80166,461.27345 c -2.19048,8.83308 0.56991,8.95417 -17.67604,8.77765 -15.08886,-0.14598 -28.14414,-4.36774 -35.07397,-5.16361 -6.34919,-0.7292 8.0949,-4.69618 23.1841,-4.69618 15.0892,0 29.56591,1.08214 29.56591,1.08214 z"
             style="fill:#1f241c;stroke:none;stroke-opacity:1" />
        </g>
      </g>
    </g>
  </g>
</svg>
