<?xml version="1.0" encoding="UTF-8" standalone="no"?>
<!-- Created with Inkscape (http://www.inkscape.org/) -->

<svg
   xmlns:dc="http://purl.org/dc/elements/1.1/"
   xmlns:cc="http://creativecommons.org/ns#"
   xmlns:rdf="http://www.w3.org/1999/02/22-rdf-syntax-ns#"
   xmlns:svg="http://www.w3.org/2000/svg"
   xmlns="http://www.w3.org/2000/svg"
   xmlns:sodipodi="http://sodipodi.sourceforge.net/DTD/sodipodi-0.dtd"
   xmlns:inkscape="http://www.inkscape.org/namespaces/inkscape"
   width="800"
   height="300"
   viewBox="0 0 800.00001 300.00001"
   id="svg7943"
   version="1.1"
   inkscape:version="0.91 r13725"
   sodipodi:docname="Wasserplfanzen.svg">
  <defs
     id="defs7945" />
  <sodipodi:namedview
     id="base"
     pagecolor="#ffffff"
     bordercolor="#666666"
     borderopacity="1.0"
     inkscape:pageopacity="0.0"
     inkscape:pageshadow="2"
     inkscape:zoom="1.4"
     inkscape:cx="390.05839"
     inkscape:cy="110.64909"
     inkscape:document-units="px"
     inkscape:current-layer="layer1"
     showgrid="false"
     units="px"
     inkscape:window-width="1920"
     inkscape:window-height="1018"
     inkscape:window-x="1272"
     inkscape:window-y="-8"
     inkscape:window-maximized="1" />
  <metadata
     id="metadata7948">
    <rdf:RDF>
      <cc:Work
         rdf:about="">
        <dc:format>image/svg+xml</dc:format>
        <dc:type
           rdf:resource="http://purl.org/dc/dcmitype/StillImage" />
        <dc:title></dc:title>
      </cc:Work>
    </rdf:RDF>
  </metadata>
  <g
     inkscape:label="Ebene 1"
     inkscape:groupmode="layer"
     id="layer1"
     transform="translate(0,-752.36216)">
    <path
       style="fill:#225500;fill-opacity:1;stroke:none;stroke-opacity:1"
       d="m 177.14286,917.3622 c 0,78.1088 7.81509,142.8571 0.71428,142.8571 -7.1008,0 -12.85714,-63.3198 -12.85714,-141.4286 0,-78.1088 8.42365,-167.53752 12.85714,-141.42854 11.42834,67.30198 -0.71428,61.89112 -0.71428,140.00004 z"
       id="path8491"
       inkscape:connector-curvature="0"
       sodipodi:nodetypes="sssss" />
    <path
       style="fill:#225500;fill-opacity:1;stroke:none;stroke-opacity:1"
       d="m 220.40691,973.2473 c 0,78.1089 7.81509,142.8572 0.71428,142.8572 -7.1008,0 -12.85714,-63.3198 -12.85714,-141.4286 0,-78.10885 8.42365,-167.53757 12.85714,-141.42859 11.42834,67.30198 -0.71428,61.89112 -0.71428,139.99999 z"
       id="path8491-7"
       inkscape:connector-curvature="0"
       sodipodi:nodetypes="sssss" />
    <path
       style="fill:#225500;fill-opacity:1;stroke:none;stroke-opacity:1"
       d="m 273.26405,963.9616 c 0,78.1089 7.81509,142.8572 0.71428,142.8572 -7.1008,0 -12.85714,-63.3198 -12.85714,-141.4286 0,-78.10885 29.85223,-166.109 25.71428,-140.00002 -10.68584,67.42386 -13.57142,60.46255 -13.57142,138.57142 z"
       id="path8491-2"
       inkscape:connector-curvature="0"
       sodipodi:nodetypes="sssss" />
    <path
       style="fill:#225500;fill-opacity:1;stroke:none;stroke-opacity:1"
       d="m 438.97834,928.9616 c 0,78.1089 7.81509,142.8572 0.71428,142.8572 -7.1008,0 -12.85714,-63.3198 -12.85714,-141.4286 0,-78.10885 8.42366,-167.53757 12.85714,-141.42859 11.42834,67.30198 -0.71428,61.89112 -0.71428,139.99999 z"
       id="path8491-0"
       inkscape:connector-curvature="0"
       sodipodi:nodetypes="sssss" />
    <path
       style="fill:#225500;fill-opacity:1;stroke:none;stroke-opacity:1"
       d="m 469.69263,974.6759 c 0,78.1089 7.81509,142.8572 0.71428,142.8572 -7.10081,0 -12.85714,-63.3198 -12.85714,-141.4286 0,-78.10887 8.42365,-167.53759 12.85714,-141.42861 11.42834,67.30198 -0.71428,61.89112 -0.71428,140.00001 z"
       id="path8491-6"
       inkscape:connector-curvature="0"
       sodipodi:nodetypes="sssss" />
    <path
       style="fill:#225500;fill-opacity:1;stroke:none;stroke-opacity:1"
       d="m 605.40691,971.8187 c 0,78.1089 7.81509,142.8572 0.71428,142.8572 -7.1008,0 -12.91801,-63.3198 -12.85714,-141.4286 0.0614,-78.78412 11.83012,-205.00872 12.85714,-141.42854 1.10255,68.25649 -0.71428,61.89112 -0.71428,139.99994 z"
       id="path8491-8"
       inkscape:connector-curvature="0"
       sodipodi:nodetypes="sssss" />
    <path
       style="fill:#225500;fill-opacity:1;stroke:none;stroke-opacity:1"
       d="m 636.1212,918.2473 c 0,78.1089 7.81509,142.8572 0.71428,142.8572 -7.10081,0 -12.85714,-63.3198 -12.85714,-141.4286 0,-78.10884 2.70936,-177.53756 7.14285,-151.42858 11.42834,67.30198 5.00001,71.89112 5.00001,149.99998 z"
       id="path8491-83"
       inkscape:connector-curvature="0"
       sodipodi:nodetypes="sssss" />
    <path
       style="fill:#225500;fill-opacity:1;stroke:none;stroke-opacity:1"
       d="m 391.83548,983.2473 c 0,78.1088 7.81509,142.8572 0.71428,142.8572 -7.1008,0 -12.85714,-63.3199 -12.85714,-141.4286 0,-78.10884 15.35786,-174.47177 12.85714,-141.42858 -5.15162,68.07068 -0.71428,61.89112 -0.71428,139.99998 z"
       id="path8491-1"
       inkscape:connector-curvature="0"
       sodipodi:nodetypes="sssss" />
    <path
       style="fill:#225500;fill-opacity:1;stroke:none;stroke-opacity:1"
       d="m 682.54976,906.81875 c 0,78.10885 7.81509,142.85715 0.71428,142.85715 -7.1008,0 -12.85713,-63.3198 -12.85713,-141.42858 0,-78.10883 8.42365,-167.53755 12.85713,-141.42857 11.42834,67.30198 -0.71428,61.89112 -0.71428,140 z"
       id="path8491-24"
       inkscape:connector-curvature="0"
       sodipodi:nodetypes="sssss" />
    <path
       style="fill:#225500;fill-opacity:1;stroke:none;stroke-opacity:1"
       d="m 68.978339,970.3902 c 0,78.1088 7.81509,142.8572 0.71428,142.8572 -7.1008,0 -12.85714,-63.3199 -12.85714,-141.4286 0,-78.10888 -0.862064,-182.5376 3.571426,-156.42862 11.42834,67.30198 8.571434,76.89112 8.571434,155.00002 z"
       id="path8491-3"
       inkscape:connector-curvature="0"
       sodipodi:nodetypes="sssss" />
    <path
       style="fill:#225500;fill-opacity:1;stroke:none;stroke-opacity:1"
       d="m 745.40691,958.2473 c 0,78.1089 7.81509,142.8572 0.71428,142.8572 -7.10081,0 -12.85714,-63.3198 -12.85714,-141.4286 0,-78.10884 8.42365,-167.53756 12.85714,-141.42858 11.42834,67.30198 -0.71428,61.89112 -0.71428,139.99998 z"
       id="path8491-4"
       inkscape:connector-curvature="0"
       sodipodi:nodetypes="sssss" />
  </g>
</svg>
